<svg width="30" height="27" viewBox="0 0 30 27" fill="none" xmlns="http://www.w3.org/2000/svg">
<path fill-rule="evenodd" clip-rule="evenodd" d="M9.37501 1.09463C11.6522 0.173452 14.1208 -0.174361 16.5639 0.0817541C19.007 0.337869 21.3498 1.19007 23.3865 2.56349C25.4232 3.9369 27.0914 5.78949 28.2445 7.95848C29.3977 10.1275 30.0005 12.5465 30 15.003C30 15.445 29.8244 15.8689 29.5118 16.1815C29.1993 16.494 28.7754 16.6696 28.3333 16.6696C27.8913 16.6696 27.4674 16.494 27.1548 16.1815C26.8423 15.8689 26.6667 15.445 26.6667 15.003C26.6674 13.0922 26.1989 11.2104 25.3021 9.52311C24.4054 7.8358 23.108 6.39457 21.5238 5.32608C19.9397 4.25759 18.1174 3.59455 16.217 3.39523C14.3166 3.19591 12.3964 3.46641 10.625 4.18296C10.4208 4.27313 10.2005 4.32136 9.97731 4.32477C9.75409 4.32818 9.53246 4.28672 9.32557 4.20283C9.11868 4.11895 8.93076 3.99436 8.77295 3.83645C8.61514 3.67854 8.49066 3.49054 8.40691 3.2836C8.32315 3.07667 8.28182 2.85501 8.28537 2.63179C8.28892 2.40858 8.33728 2.18835 8.42757 1.98418C8.51787 1.78001 8.64826 1.59606 8.81102 1.44326C8.97377 1.29045 9.16556 1.17189 9.37501 1.09463ZM6.10334 4.93463C6.43451 5.22711 6.63599 5.63912 6.66349 6.0801C6.69099 6.52108 6.54227 6.95493 6.25001 7.28629C4.36645 9.41506 3.32874 12.1605 3.33334 15.003C3.33334 15.445 3.15775 15.8689 2.84519 16.1815C2.53263 16.494 2.10871 16.6696 1.66668 16.6696C1.22465 16.6696 0.800728 16.494 0.488167 16.1815C0.175607 15.8689 1.20886e-05 15.445 1.20886e-05 15.003C-0.00463274 11.3486 1.32939 7.81903 3.75001 5.0813C3.89486 4.91707 4.07064 4.783 4.26733 4.68675C4.46401 4.59049 4.67773 4.53394 4.89629 4.52032C5.11483 4.50669 5.33393 4.53627 5.54104 4.60736C5.74815 4.67845 5.93923 4.78966 6.10334 4.93463Z" fill="#ECEBE4"/>
<path fill-rule="evenodd" clip-rule="evenodd" d="M6.66648 15.0029C6.66648 12.7928 7.54445 10.6732 9.10726 9.11039C10.6701 7.54759 12.7897 6.66962 14.9998 6.66962C17.2099 6.66962 19.3296 7.54759 20.8924 9.11039C22.4552 10.6732 23.3331 12.7928 23.3331 15.0029C23.3331 15.445 23.1575 15.8689 22.845 16.1815C22.5324 16.494 22.1085 16.6696 21.6665 16.6696C21.2244 16.6696 20.8005 16.494 20.488 16.1815C20.1754 15.8689 19.9998 15.445 19.9998 15.0029C19.9998 13.6769 19.473 12.4051 18.5353 11.4674C17.5977 10.5297 16.3259 10.0029 14.9998 10.0029C13.6737 10.0029 12.402 10.5297 11.4643 11.4674C10.5266 12.4051 9.99981 13.6769 9.99981 15.0029C9.99981 17.7979 9.42481 20.4629 8.38648 22.8846C8.2121 23.2908 7.88349 23.6111 7.47294 23.7751C7.06239 23.939 6.60354 23.9332 6.19731 23.7588C5.79109 23.5844 5.47078 23.2558 5.30684 22.8452C5.1429 22.4347 5.14877 21.9758 5.32315 21.5696C6.21259 19.4948 6.66968 17.2604 6.66648 15.0029ZM21.5348 18.3563C21.7511 18.3906 21.9585 18.4671 22.1452 18.5816C22.3318 18.6961 22.4941 18.8462 22.6228 19.0234C22.7514 19.2007 22.8438 19.4015 22.8948 19.6145C22.9458 19.8274 22.9543 20.0484 22.9198 20.2646C22.7025 21.6357 22.3991 22.9917 22.0115 24.3246C21.9545 24.5394 21.8552 24.7406 21.7194 24.9164C21.5835 25.0922 21.4139 25.2391 21.2205 25.3484C21.027 25.4578 20.8137 25.5273 20.593 25.553C20.3723 25.5786 20.1487 25.5599 19.9353 25.4979C19.722 25.4359 19.5232 25.3318 19.3506 25.1919C19.1781 25.0519 19.0352 24.8789 18.9305 24.6829C18.8258 24.4869 18.7613 24.272 18.7409 24.0508C18.7204 23.8295 18.7444 23.6064 18.8115 23.3946C19.1565 22.2063 19.4298 20.9863 19.6281 19.7413C19.6978 19.3051 19.9377 18.9144 20.2952 18.6551C20.6527 18.3957 21.0986 18.2888 21.5348 18.3579V18.3563Z" fill="#ECEBE4"/>
<path fill-rule="evenodd" clip-rule="evenodd" d="M15.0002 13.3363C15.4422 13.3363 15.8661 13.5119 16.1787 13.8245C16.4913 14.137 16.6669 14.5609 16.6669 15.003C16.6669 18.7296 15.9002 22.283 14.5169 25.5096C14.4305 25.7108 14.3054 25.8929 14.1486 26.0457C13.9919 26.1985 13.8066 26.3189 13.6033 26.4001C13.4 26.4813 13.1827 26.5216 12.9639 26.5188C12.745 26.516 12.5288 26.4701 12.3277 26.3838C12.1265 26.2975 11.9444 26.1723 11.7916 26.0156C11.6388 25.8588 11.5184 25.6735 11.4372 25.4703C11.356 25.267 11.3157 25.0497 11.3185 24.8308C11.3213 24.612 11.3672 24.3958 11.4535 24.1946C12.6982 21.2903 13.3379 18.1628 13.3335 15.003C13.3335 14.5609 13.5091 14.137 13.8217 13.8245C14.1342 13.5119 14.5582 13.3363 15.0002 13.3363Z" fill="#ECEBE4"/>
</svg>